<svg width="24" height="24" viewBox="0 0 24 24" fill="none" xmlns="http://www.w3.org/2000/svg">
<g clip-path="url(#clip0_3522_25087)">
<path d="M12 24C18.6429 24 24 18.6429 24 12C24 5.35714 18.6429 0 12 0C5.35714 0 0 5.35714 0 12C0 18.6429 5.35714 24 12 24Z" fill="#0098EA"/>
<path d="M16.1142 6.68573H7.88565C6.38565 6.68573 5.4428 8.3143 6.17137 9.64287L11.2285 18.4286C11.5714 18.9857 12.3857 18.9857 12.7285 18.4286L17.7857 9.64287C18.5571 8.3143 17.6142 6.68573 16.1142 6.68573ZM11.2714 15.7714L10.1571 13.6286L7.49994 8.87144C7.32851 8.57144 7.5428 8.18573 7.92851 8.18573H11.2714V15.7714ZM16.4999 8.87144L13.8428 13.6286L12.7285 15.7714V8.18573H16.0714C16.4571 8.18573 16.6714 8.57144 16.4999 8.87144Z" fill="white"/>
</g>
<defs>
<clipPath id="clip0_3522_25087">
<rect width="24" height="24" fill="white"/>
</clipPath>
</defs>
</svg>
