<svg width="24" height="24" viewBox="0 0 24 24" fill="none" xmlns="http://www.w3.org/2000/svg">
<g clip-path="url(#clip0_3522_25090)">
<path fill-rule="evenodd" clip-rule="evenodd" d="M4.39452 0.117691L0.0184792 10.6843C0.00182707 10.7236 -0.00344987 10.768 0.00342004 10.811C0.01029 10.854 0.0289463 10.8933 0.0566608 10.9233L11.8753 23.9421C11.9089 23.9791 11.9536 23.9998 12.0001 23.9998C12.0466 23.9998 12.0913 23.9791 12.1249 23.9421L23.9435 10.9241C23.9712 10.8941 23.9899 10.8548 23.9968 10.8118C24.0036 10.7688 23.9984 10.7244 23.9817 10.6851L19.6057 0.118504C19.5915 0.0830166 19.5688 0.0529545 19.5402 0.0319102C19.5117 0.010866 19.4784 -0.000270157 19.4445 -0.000167376H4.55715C4.52304 -0.000655197 4.48953 0.0102127 4.46068 0.0311254C4.43182 0.0520381 4.40885 0.0821021 4.39452 0.117691Z" fill="#50AF95"/>
<path fill-rule="evenodd" clip-rule="evenodd" d="M13.5184 11.7696C13.4335 11.7769 12.9951 11.807 12.0173 11.807C11.2395 11.807 10.6873 11.7801 10.4935 11.7696C7.4878 11.6176 5.24427 11.0161 5.24427 10.2959C5.24427 9.57578 7.4878 8.97511 10.4935 8.82067V11.1705C10.6901 11.1868 11.2529 11.225 12.0307 11.225C12.964 11.225 13.4314 11.1803 13.5155 11.1713V8.8223C16.5149 8.97592 18.7535 9.57741 18.7535 10.2959C18.7535 11.0145 16.5156 11.6159 13.5155 11.7688L13.5184 11.7696ZM13.5184 8.57927V6.47652H17.7042V3.26996H6.3077V6.47652H10.4928V8.57846C7.09113 8.75809 4.53296 9.5327 4.53296 10.4609C4.53296 11.3892 7.09113 12.163 10.4928 12.3434V19.0817H13.5177V12.341C16.9116 12.1613 19.4655 11.3875 19.4655 10.4601C19.4655 9.5327 16.9137 8.7589 13.5177 8.57846L13.5184 8.57927Z" fill="white"/>
</g>
<defs>
<clipPath id="clip0_3522_25090">
<rect width="24" height="24" fill="white"/>
</clipPath>
</defs>
</svg>
